# xmcd CD database file
#
# Track frame offsets:
#	187
#	11205
#	39612
#	55552
#	64940
#	83845
#	95942
#	110250
#	127032
#	146075
#	156782
#	177472
#	195725
#	219915
#	237322
#	262427
#
# Disc length: 3693 seconds
#
# Revision: 0
# Processed by: cddbd v1.5.1PL0 Copyright (c) Steve Scherf et al.
# Submitted via: CDex 1.51
#
DISCID=f20e6b10
DTITLE=Cal Tjader - Verve Jazz Masters
DYEAR=1994
DGENRE=Jazz
TTITLE0=Soul Sauce
TTITLE1=Curacao
TTITLE2=China Nights
TTITLE3=The Whiffenpoof Song
TTITLE4=Triste
TTITLE5=Soul Bird
TTITLE6=The Way You Look Tonight
TTITLE7=Daddy Wong Legs
TTITLE8=Tokyo Blues
TTITLE9=Cuchy Frito Man
TTITLE10=The Prophet
TTITLE11=Borneo
TTITLE12=Leyte
TTITLE13=Hip Vibrations
TTITLE14=Cal's Bluedo
TTITLE15=Moanin'
EXTD=YEAR: 1994
EXTT0=
EXTT1=
EXTT2=
EXTT3=
EXTT4=
EXTT5=
EXTT6=
EXTT7=
EXTT8=
EXTT9=
EXTT10=
EXTT11=
EXTT12=
EXTT13=
EXTT14=
EXTT15=
PLAYORDER=
